<?xml version="1.0" encoding="UTF-8"?>
<svg id="Layer_1" data-name="Layer 1" xmlns="http://www.w3.org/2000/svg" viewBox="0 0 339.87 512.03">
  <defs>
    <style>
      .cls-1 {
        fill: #a07765;
      }

      .cls-2 {
        fill: #ffaa64;
      }

      .cls-3 {
        fill: #f2d1c2;
      }

      .cls-4 {
        fill: #c79a83;
      }

      .cls-5 {
        fill: #ffec8f;
      }

      .cls-6 {
        fill: #faa157;
      }

      .cls-7 {
        fill: #ffe773;
      }

      .cls-8 {
        fill: #ffbd7b;
      }

      .cls-9 {
        fill: #e0b7a3;
      }
    </style>
  </defs>
  <path class="cls-4" d="m339.87,459.87v43.32c0,4.88-3.95,8.83-8.83,8.83H8.83C3.95,512.02,0,508.07,0,503.19v-43.32C0,414.6,36.58,377.17,81.85,377.59c25.51.21,46.15-20.3,46.15-45.62v-7.54l.17-.41c2.71,1.13,5.5,2.14,8.32,3.03-42.68-13.89-75.8-53.63-75.8-104v-24.99c-6.2.5-12.45.75-18.73.75-4.88-.01-8.86-3.96-8.86-8.84v-80.17C33.1,49.17,82.26,0,142.89,0h54.07c60.63,0,109.79,49.16,109.79,109.79v82.71c0,14.62-11.84,27.08-27.59,27.08v3.45c0,45.54-27.86,84.56-67.48,100.95l.17.42v7.54c0,25.3,20.62,45.83,46.15,45.62,45.27-.42,81.85,37.01,81.85,82.28l.02.02Z"/>
  <path class="cls-2" d="m339.87,459.87v43.32c0,4.88-3.95,8.83-8.83,8.83H8.83C3.95,512.02,0,508.07,0,503.19v-43.32C0,414.59,36.58,377.16,81.85,377.58c6.64.06,12.97-1.29,18.67-3.77h0c13.32,30.29,45,48.7,78.23,44.8,26.45-3.1,49.69-20.03,60.58-44.79h0c5.71,2.47,12.04,3.82,18.67,3.76,45.27-.42,81.85,37.01,81.85,82.29h.02Z"/>
  <path class="cls-7" d="m306.77,109.81v82.71c0,14.63-11.84,27.08-27.59,27.08v-50.96c0-3.71-2.33-7.03-5.82-8.29-19.08-6.89-35.41-20.29-45.85-38.24-3.02-5.2-10.32-5.79-14.24-1.24-43.34,50.25-105.36,77.96-171.3,77.94-4.87,0-8.86-3.96-8.86-8.83v-80.17C33.11,49.17,82.27.02,142.9.02h54.07c60.64,0,109.79,49.16,109.79,109.79h.01Z"/>
  <path class="cls-9" d="m279.18,223.06c0,45.54-27.86,84.56-67.48,100.95-71.43,29.65-151.01-22.88-151.01-100.95v-25.02c60.32-4.88,114.16-32.63,152.57-77.17,3.93-4.55,11.22-3.96,14.24,1.24,10.44,17.95,26.78,31.35,45.85,38.24,3.49,1.26,5.82,4.58,5.82,8.29v54.42h.01Z"/>
  <path class="cls-8" d="m105.64,383.48c6.3,10.07.82,23.33-10.68,26.31-27.73,7.17-64.06,25.83-64.06,78.49v23.75H8.83c-4.88,0-8.83-3.95-8.83-8.83v-43.32c0-32.89,19.35-61.8,48.42-75.01h.01c26.28-11.79,33.75-3.4,52.09-11.03,1.48,3.37,3.19,6.59,5.11,9.66h0v-.02Z"/>
  <path class="cls-6" d="m233.87,383.48c-6.3,10.07-.82,23.33,10.68,26.31,27.73,7.17,64.06,25.83,64.06,78.49v23.75h22.07c4.88,0,8.83-3.95,8.83-8.83v-43.32c0-32.89-19.35-61.8-48.42-75.01h-.01c-26.28-11.79-33.75-3.4-52.09-11.03-1.48,3.37-3.19,6.59-5.11,9.66h0v-.02Z"/>
  <path class="cls-1" d="m213.12,342.55c-27.19,11.38-57.06,12.26-86.36,0,1.5-6.21,1.25-10.23,1.25-18.12l.17-.41c26.57,11.03,56.91,11.05,83.53,0l.17.41c0,7.89-.25,11.91,1.25,18.12h-.01Z"/>
  <path class="cls-5" d="m238.32,8.07c13.45,5.47,8.99,25.44-5.52,25.08-2.23-.05-57.9-.03-56.79-.03-60.64,0-109.79,49.16-109.79,109.79v42.56c0,6.99-5.51,12.69-12.49,13.04-3.9.2-7.82.29-11.75.29-4.88-.01-8.86-3.96-8.86-8.84v-80.17C33.12,49.15,82.28,0,142.91,0h54.07c14.63,0,28.59,2.86,41.35,8.05v.02Z"/>
  <path class="cls-3" d="m135.34,286.69c17.86,14.08-1.19,41.81-20.83,30.34-31.21-18.23-53.82-51.55-53.82-93.97v-25.02c11.28-.92,22.33-2.63,33.1-5.1v8.04c0,35.47,16.55,66,41.54,85.7h.01Z"/>
  <path class="cls-7" d="m298.24,396.94c-20.21,41.76-80.02,39.41-82.23,31.36-1.87-6.82,38.11-15.68,45.49-50.17,2.76-12.88,4.52-39.9-10.5-54.35-5.41-5.21-12.08-7.93-12.06-13.75,0-2.16.94-4.23,14.32-19.54,4.72-5.4,4.32-4.82,5.68-6.46,10.9-13.19,11.08-20,14.32-20.19,9.64-.59,20.28,35.59,25.09,62.33,6.43,35.77,8.47,53.05-.11,70.78h0Z"/>
</svg>